<svg width="16" height="17" viewBox="0 0 16 17" fill="none" xmlns="http://www.w3.org/2000/svg">
<path d="M5.99158 0.0213623C6.28713 0.0996705 6.55581 0.220692 6.76404 0.484093C6.95883 0.733255 7.05287 1.01801 7.05287 1.33836C7.05287 2.94012 7.05959 4.54188 7.05287 6.14364C7.04615 6.90537 6.52894 7.45352 5.8035 7.46064C4.29888 7.46776 2.79427 7.46776 1.28293 7.46064C0.55749 7.4464 0.0402778 6.89113 0.0402778 6.12228C0.0335608 4.53476 0.0402778 2.95436 0.0402778 1.36684C0.0402778 0.676304 0.416432 0.199336 1.05455 0.0427191C1.06799 0.0427191 1.08142 0.0284812 1.09485 0.0213623C2.7271 0.0213623 4.35934 0.0213623 5.99158 0.0213623Z" fill="#8D8D8D"/>
<path d="M16 6.32873C15.9261 6.64196 15.8119 6.92672 15.5634 7.14741C15.3283 7.35386 15.0596 7.45352 14.7573 7.45352C13.246 7.45352 11.7347 7.46064 10.2233 7.45352C9.4979 7.4464 8.98068 6.89113 8.98068 6.12228C8.97397 4.53476 8.97397 2.95436 8.98068 1.36684C8.98068 0.676304 9.35684 0.199336 9.99496 0.0427191C10.0084 0.0427191 10.0218 0.0284812 10.0353 0.0213623C11.6675 0.0213623 13.2997 0.0213623 14.932 0.0213623C15.1268 0.106789 15.3283 0.177979 15.5029 0.291882C15.7918 0.484093 15.9127 0.804444 15.9866 1.14615C16 2.86893 16 4.59883 16 6.32873Z" fill="#8D8D8D"/>
<path d="M16 15.8111C15.9261 16.1173 15.8186 16.3949 15.5903 16.6085C15.3552 16.8292 15.073 16.9359 14.7641 16.9359C13.2527 16.9359 11.7414 16.9431 10.2301 16.9359C9.51805 16.9359 8.99412 16.3878 8.9874 15.6332C8.98068 14.0243 8.98068 12.4225 8.9874 10.8137C8.99412 10.059 9.51133 9.51089 10.2233 9.51089C11.7347 9.50377 13.246 9.50377 14.7573 9.51089C15.3753 9.51089 15.8321 9.91667 15.9731 10.5574C15.9798 10.5859 15.9933 10.6072 16 10.6357C16 12.3513 16 14.0812 16 15.8111Z" fill="#8D8D8D"/>
<path d="M15.9999 1.14615C15.9261 0.804444 15.7984 0.491212 15.5163 0.291882C15.3417 0.17086 15.1335 0.106789 14.9454 0.0213623C15.3014 0.0213623 15.6507 0.0213623 16.0067 0.0213623C15.9999 0.391547 15.9999 0.76885 15.9999 1.14615Z" fill="#8D8D8D"/>
<path d="M3.53986 16.9359C2.80771 16.9359 2.07555 16.9359 1.34339 16.9359C0.550779 16.9359 0.0402832 16.3949 0.0402832 15.5478C0.0402832 13.9958 0.0402832 12.4439 0.0402832 10.892C0.0402832 10.0519 0.550779 9.50378 1.34339 9.50378C2.81442 9.50378 4.28546 9.50378 5.75649 9.50378C6.53566 9.50378 7.05288 10.0519 7.05288 10.8849C7.05288 12.4439 7.05288 14.0029 7.05288 15.562C7.05288 16.3949 6.53566 16.9359 5.75649 16.9431C5.01761 16.9359 4.27874 16.9359 3.53986 16.9359Z" fill="#8D8D8D"/>
</svg>
