<svg width="10" height="13" viewBox="0 0 10 13" fill="none" xmlns="http://www.w3.org/2000/svg">
<path d="M4.921 13C4.15014 12.2825 3.44872 11.5109 2.7855 10.6987C2.01116 9.75108 1.30975 8.7561 0.768058 7.65959C0.424294 6.96919 0.149977 6.2551 0.0458065 5.48687C-0.106977 4.3599 0.122199 3.304 0.736808 2.33948C1.54587 1.07037 2.723 0.305517 4.23695 0.061848C6.23703 -0.259659 8.2892 0.694711 9.3066 2.40378C10.1087 3.75073 10.1921 5.15859 9.67467 6.61722C9.28924 7.70358 8.70241 8.68841 8.03224 9.62924C7.1954 10.8002 6.24745 11.873 5.21268 12.8782C5.17101 12.9188 5.12587 12.956 5.08073 12.9966C5.02517 13 4.97309 13 4.921 13ZM2.70911 4.88446C2.70911 6.11296 3.7404 7.11133 5.01129 7.11133C6.26134 7.11133 7.29263 6.1062 7.29263 4.89123C7.2961 3.65935 6.27523 2.64745 5.02518 2.64406C3.73693 2.64068 2.70911 3.63566 2.70911 4.88446Z" fill="#FF2D00"/>
</svg>
