<svg width="14" height="14" viewBox="0 0 14 14" fill="none" xmlns="http://www.w3.org/2000/svg">
<path d="M0 5.36427C0.0294775 5.12527 0.0589549 4.88627 0.103171 4.6622C0.294775 3.61657 0.751675 2.69044 1.45913 1.89874C2.29924 0.972611 3.31622 0.360169 4.52479 0.121167C5.95445 -0.162648 7.29567 0.0464788 8.54847 0.808298C9.96339 1.67468 10.8624 2.92944 11.2014 4.57258C11.4962 5.96178 11.2751 7.29123 10.5972 8.54599C10.4645 8.78499 10.4645 8.78499 10.6561 8.97918C11.6436 9.98 12.6311 10.9808 13.6186 11.9816C13.9428 12.3103 14.0755 12.6837 13.9576 13.1468C13.7365 13.9982 12.6901 14.3119 12.0268 13.6248C11.4667 13.0422 10.9067 12.4746 10.3319 11.9069C9.87495 11.4439 9.43279 10.9958 8.97589 10.5327C8.94641 10.5028 8.91694 10.4729 8.9022 10.458C8.54847 10.6373 8.22421 10.8464 7.87049 10.9958C6.3524 11.6381 4.81957 11.6231 3.31622 10.936C2.18133 10.4132 1.32649 9.59162 0.707459 8.50117C0.324252 7.7991 0.0884324 7.05222 0.0294775 6.24559C0.0294775 6.20078 0.0147387 6.15597 0 6.11115C0 5.87215 0 5.61821 0 5.36427ZM9.49175 5.73771C9.49175 3.60163 7.75258 1.85393 5.65968 1.86887C3.5373 1.88381 1.8276 3.61657 1.84234 5.75265C1.85708 7.88873 3.55204 9.6215 5.65968 9.6215C7.76731 9.6215 9.49175 7.87379 9.49175 5.73771Z" fill="#8D8D8D"/>
</svg>
