<svg width="13" height="18" viewBox="0 0 13 18" fill="none" xmlns="http://www.w3.org/2000/svg">
<path d="M5.90702 17.0012C4.98169 16.0629 4.13974 15.0538 3.34363 13.9916C2.41414 12.7523 1.57218 11.4511 0.921952 10.0171C0.509309 9.11421 0.180028 8.18034 0.0549846 7.17565C-0.128412 5.70182 0.146684 4.32092 0.88444 3.05953C1.85561 1.39981 3.2686 0.399551 5.0859 0.0808839C7.48674 -0.339579 9.95009 0.908534 11.1713 3.14363C12.1342 4.90515 12.2342 6.74634 11.6132 8.65391C11.1505 10.0746 10.4461 11.3626 9.64165 12.593C8.63713 14.1244 7.49924 15.5274 6.25714 16.8419C6.20712 16.895 6.15293 16.9437 6.09875 16.9968C6.03206 17.0012 5.96954 17.0012 5.90702 17.0012ZM3.25193 6.38783C3.25193 7.99445 4.48986 9.3001 6.01539 9.3001C7.51591 9.3001 8.75384 7.9856 8.75384 6.39669C8.75801 4.78565 7.53258 3.4623 6.03206 3.45787C4.48569 3.45344 3.25193 4.75467 3.25193 6.38783Z" fill="#FF2D00"/>
</svg>
