<svg width="19" height="14" viewBox="0 0 19 14" fill="none" xmlns="http://www.w3.org/2000/svg">
<path d="M5.2182 5.6778C5.27989 5.6778 5.37242 5.6778 5.43411 5.6778C9.44398 5.6778 13.4847 5.6778 17.4946 5.6778C18.2657 5.6778 18.6667 6.06745 18.6667 6.76326C18.6667 6.95809 18.6667 7.15292 18.6667 7.34774C18.6667 7.96005 18.2657 8.32187 17.5871 8.32187C14.9344 8.32187 12.2817 8.32187 9.62906 8.32187C8.24102 8.32187 6.85299 8.32187 5.43411 8.32187C5.37242 8.32187 5.31073 8.32187 5.18735 8.32187C5.24904 8.37754 5.27989 8.4332 5.34158 8.46103C6.57538 9.57433 7.80919 10.6876 9.01215 11.8009C9.41314 12.1627 9.53652 12.6081 9.22807 12.9699C8.95046 13.3039 8.61116 13.61 8.24102 13.8605C7.90173 14.0832 7.43905 14.0275 7.09975 13.777C7.03806 13.7492 7.00722 13.6935 6.94553 13.6657C4.75552 11.6896 2.56551 9.71349 0.375506 7.73739C-0.0254797 7.37557 -0.118017 6.93025 0.15959 6.5406C0.22128 6.4571 0.282971 6.37361 0.375506 6.29011C2.59636 4.31401 4.81721 2.31008 7.00722 0.333986C7.50074 -0.111331 8.0868 -0.111331 8.58032 0.333986C8.73455 0.473148 8.88877 0.612311 9.043 0.751473C9.53652 1.19679 9.53652 1.7256 9.043 2.17092C7.80919 3.28422 6.57538 4.39751 5.31073 5.5108C5.24904 5.53864 5.2182 5.5943 5.15651 5.62213C5.18735 5.64997 5.18735 5.6778 5.2182 5.6778Z" fill="#FF2D00"/>
</svg>
